#!OML:ASF F:\VICON\USERDATA\INSTALL\rory3\rory3.ASF
:FULLY-SPECIFIED
:DEGREES
533
root 0.496922 29.331 -6.43208 -153.554 -76.8891 162.844
lowerback 4.10959 0.941115 -0.798406
upperback 0.208651 1.23877 1.61644
thorax -2.14225 0.627195 2.03579
lowerneck -16.851 3.41039 -7.92262
upperneck 41.7858 7.20503 -2.60325
head 18.4927 0.494086 1.35873
rclavicle -1.03368e-014 3.73715e-014
rhumerus -30.3807 -15.7911 -71.1826
rradius 31.7602
rwrist 20.586
rhand -20.5671 1.86001
rfingers 7.12502
rthumb 5.79227 -28.0408
lclavicle -1.03368e-014 3.73715e-014
lhumerus -31.4807 13.5131 75.2725
lradius 34.6902
lwrist -3.1708
lhand -12.6935 25.5444
lfingers 7.12502
lthumb 13.3887 55.0942
rfemur -19.8821 3.6719 15.5436
rtibia 29.2723
rfoot -16.6807 -4.36207
rtoes 6.6581
lfemur -22.3352 -9.81212 -18.7771
ltibia 25.9278
lfoot -7.28969 -17.284
ltoes -17.7591
534
root 0.515635 29.3402 -6.46814 -152.373 -77.8565 161.659
lowerback 4.17196 0.97999 -0.631839
upperback 0.19612 1.29919 1.70633
thorax -2.19102 0.655885 2.03001
lowerneck -16.6977 3.28463 -8.34034
upperneck 41.7829 7.04545 -2.32787
head 18.4164 0.416781 1.52929
rclavicle -2.22639e-014 -9.54166e-015
rhumerus -30.157 -15.8658 -70.6683
rradius 31.7614
rwrist 20.7114
rhand -20.8498 2.02004
rfingers 7.12502
rthumb 5.51941 -27.8881
lclavicle -2.22639e-014 -9.54166e-015
lhumerus -31.5999 13.4492 75.4902
lradius 34.588
lwrist -2.67183
lhand -13.4129 25.8824
lfingers 7.12502
lthumb 12.6952 55.4766
rfemur -19.632 3.35136 15.7936
rtibia 29.0435
rfoot -16.9008 -4.81595
rtoes 7.10877
lfemur -22.5896 -8.63734 -19.2137
ltibia 26.5078
lfoot -8.09095 -15.8739
ltoes -19.1696
535
root 0.538896 29.3475 -6.50441 -152.742 -78.9317 162.023
lowerback 4.28425 1.02033 -0.19365
upperback 0.198742 1.37461 1.87284
thorax -2.24813 0.688479 1.94885
lowerneck -16.5433 3.1569 -8.60261
upperneck 41.7851 6.82758 -2.06194
head 18.3528 0.339461 1.65761
rclavicle -3.61788e-014 3.18055e-014
rhumerus -29.8557 -15.9302 -70.1948
rradius 31.7345
rwrist 20.7664
rhand -21.126 2.01706
rfingers 7.12502
rthumb 5.25267 -27.8978
lclavicle -3.61788e-014 3.18055e-014
lhumerus -31.6655 13.3405 75.6916
lradius 34.5122
lwrist -1.45323
lhand -14.8106 26.335
lfingers 7.12502
lthumb 11.3474 56.008
rfemur -19.4103 3.11827 16.4315
rtibia 28.8747
rfoot -17.1625 -5.18018
rtoes 8.18406
lfemur -22.8139 -7.43086 -19.1894
ltibia 27.0115
lfoot -8.29415 -14.6705
ltoes -18.5822
536
root 0.558881 29.3484 -6.55472 -153.894 -79.8569 163.208
lowerback 4.27942 1.14907 0.0740882
upperback 0.221159 1.55918 2.06026
thorax -2.22718 0.77684 1.98028
lowerneck -16.2749 3.14598 -8.45786
upperneck 41.7157 6.75465 -2.10677
head 18.2496 0.346988 1.59462
rclavicle -1.68967e-014 -9.54166e-015
rhumerus -29.5542 -15.7793 -69.7598
rradius 31.7452
rwrist 20.5849
rhand -21.0662 1.99972
rfingers 7.12502
rthumb 5.31041 -27.9137
lclavicle -1.68967e-014 -9.54166e-015
lhumerus -31.7296 13.3221 75.7882
lradius 34.4616
lwrist -0.854532
lhand -15.6848 26.3876
lfingers 7.12502
lthumb 10.5042 56.1051
rfemur -19.2413 3.07332 17.1943
rtibia 28.6881
rfoot -17.3695 -5.65568
rtoes 8.33053
lfemur -23.063 -6.19536 -19.0005
ltibia 27.537
lfoot -8.28534 -13.4189
ltoes -17.2232
537
root 0.582857 29.3418 -6.62248 -151.828 -80.5908 160.846
lowerback 4.59496 1.21617 -0.531751
upperback 0.32486 1.62093 2.13281
thorax -2.31866 0.813943 2.38656
lowerneck -15.8791 3.36274 -8.19951
upperneck 41.4658 7.00595 -2.20979
head 17.9989 0.513015 1.54339
rclavicle -1.45113e-014 -3.18055e-015
rhumerus -29.2528 -15.8424 -69.3923
rradius 31.8069
rwrist 20.7416
rhand -20.7957 2.08562
rfingers 7.12502
rthumb 5.57157 -27.8211
lclavicle -1.45113e-014 -3.18055e-015
lhumerus -31.8293 13.1108 75.8345
lradius 34.4352
lwrist -1.05074
lhand -15.8923 26.7773
lfingers 7.12502
lthumb 10.3041 56.5049
rfemur -18.8886 3.43511 17.3005
rtibia 28.736
rfoot -17.9933 -6.54403
rtoes 8.84847
lfemur -22.9586 -4.96259 -19.5004
ltibia 27.9178
lfoot -8.39367 -12.2119
ltoes -16.624
538
root 0.600149 29.3402 -6.64864 -151.358 -81.4039 160.401
lowerback 4.6206 1.22077 -0.290987
upperback 0.338044 1.63925 2.22179
thorax -2.31617 0.819927 2.34141
lowerneck -15.7638 3.41937 -8.31628
upperneck 41.364 7.09135 -2.08846
head 17.8895 0.566596 1.63553
rclavicle 6.36111e-015 -6.36111e-015
rhumerus -28.9456 -15.7004 -69.0393
rradius 31.8848
rwrist 20.6966
rhand -20.6285 2.32903
rfingers 7.12502
rthumb 5.73303 -27.5734
lclavicle 6.36111e-015 -6.36111e-015
lhumerus -31.9939 13.1966 75.8086
lradius 34.3508
lwrist -1.73623
lhand -15.4448 27.2114
lfingers 7.12502
lthumb 10.7358 56.9171
rfemur -18.8504 3.21316 17.6981
rtibia 28.8143
rfoot -18.3849 -6.85123
rtoes 9.60403
lfemur -23.1197 -3.91377 -19.7452
ltibia 28.3331
lfoot -8.90619 -10.6306
ltoes -17.6848
539
root 0.643284 29.337 -6.61996 -144.275 -81.7687 153.762
lowerback 4.59638 1.23175 -0.310814
upperback 0.147411 1.65474 1.88831
thorax -2.48988 0.831112 2.00594
lowerneck -15.7001 3.36861 -8.52109
upperneck 41.3056 7.00084 -1.84569
head 17.814 0.550149 1.76795
rclavicle 3.57812e-015 9.54166e-015
rhumerus -28.5484 -15.6899 -68.743
rradius 31.9247
rwrist 20.5466
rhand -20.7977 2.36992
rfingers 7.12502
rthumb 5.56964 -27.5369
lclavicle 3.57812e-015 9.54166e-015
lhumerus -32.0828 13.6118 75.7399
lradius 34.1662
lwrist -2.72381
lhand -14.5317 27.331
lfingers 7.12502
lthumb 11.6164 56.989
rfemur -19.5674 1.74507 16.9421
rtibia 29.0329
rfoot -18.0624 -6.31487
rtoes 9.12441
lfemur -23.7863 -3.09887 -21.1826
ltibia 28.5535
lfoot -9.13354 -8.99701
ltoes -18.6118
540
root 0.675114 29.3312 -6.65558 -144.02 -82.6956 153.58
lowerback 4.73027 1.28377 -0.0328587
upperback 0.155627 1.74065 2.05318
thorax -2.55671 0.870231 2.01118
lowerneck -15.6011 3.29556 -8.76392
upperneck 41.2122 6.87061 -1.57355
head 17.708 0.52004 1.91183
rclavicle 2.98177e-015 4.77083e-015
rhumerus -28.1845 -15.6453 -68.4081
rradius 32.0139
rwrist 20.6719
rhand -21.1986 1.8689
rfingers 7.12502
rthumb 5.1826 -28.0477
lclavicle 2.98177e-015 4.77083e-015
lhumerus -32.1096 14.2441 75.6086
lradius 33.9787
lwrist -3.23452
lhand -13.7389 27.165
lfingers 7.12502
lthumb 12.3809 56.7783
rfemur -19.7021 1.51501 17.6051
rtibia 29.1469
rfoot -18.2552 -6.86352
rtoes 8.67614
lfemur -24.0319 -1.95288 -21.1718
ltibia 28.7617
lfoot -9.19969 -7.93296
ltoes -18.84
541
root 0.677029 29.3368 -6.68947 -138.093 -83.1644 147.613
lowerback 4.43835 1.31595 -0.507575
upperback 0.301552 1.75409 1.94149
thorax -2.25415 0.880663 2.16974
lowerneck -15.4418 3.29284 -8.81873
upperneck 41.0669 6.81289 -1.39609
head 17.5672 0.540307 1.99056
rclavicle -8.94531e-015 -1.59028e-014
rhumerus -27.3774 -16.5113 -68.1169
rradius 31.5903
rwrist 21.5678
rhand -21.6348 1.24066
rfingers 7.12502
rthumb 4.7614 -28.6858
lclavicle -8.94531e-015 -1.59028e-014
lhumerus -31.9929 14.8793 75.3832
lradius 33.61
lwrist -3.02208
lhand -13.6719 26.6726
lfingers 7.12502
lthumb 12.4454 56.282
rfemur -19.6214 0.626468 17.3707
rtibia 29.2742
rfoot -18.3656 -6.73218
rtoes 8.53535
lfemur -23.9733 -0.67514 -22.098
ltibia 28.8723
lfoot -9.34009 -7.18828
ltoes -17.9773
